<svg xmlns="http://www.w3.org/2000/svg" width="230.34" height="35" viewBox="0 0 230.34 35"><rect class="svg__rect" x="0" y="0" width="151.28" height="35" fill="#31C4F3"/><rect class="svg__rect" x="149.28" y="0" width="81.06" height="35" fill="#389AD5"/><path class="svg__text" d="M16.67 22L14.22 22L14.22 13.47L16.74 13.47Q17.87 13.47 18.74 13.97Q19.62 14.48 20.10 15.40Q20.58 16.33 20.58 17.52L20.58 17.52L20.58 17.95Q20.58 19.16 20.10 20.08Q19.61 21.00 18.72 21.50Q17.83 22 16.67 22L16.67 22ZM15.70 14.66L15.70 20.82L16.67 20.82Q17.83 20.82 18.46 20.09Q19.08 19.36 19.09 17.99L19.09 17.99L19.09 17.52Q19.09 16.13 18.49 15.40Q17.89 14.66 16.74 14.66L16.74 14.66L15.70 14.66ZM30.62 22L25.05 22L25.05 13.47L30.58 13.47L30.58 14.66L26.53 14.66L26.53 17.02L30.03 17.02L30.03 18.19L26.53 18.19L26.53 20.82L30.62 20.82L30.62 22ZM36.30 22L34.82 22L34.82 13.47L36.74 13.47L39.20 20.01L41.66 13.47L43.57 13.47L43.57 22L42.10 22L42.10 19.19L42.24 15.43L39.72 22L38.66 22L36.15 15.43L36.30 19.19L36.30 22ZM48.04 18.00L48.04 18.00L48.04 17.52Q48.04 16.28 48.49 15.32Q48.93 14.37 49.73 13.86Q50.54 13.35 51.58 13.35Q52.63 13.35 53.43 13.85Q54.24 14.35 54.68 15.29Q55.12 16.23 55.12 17.48L55.12 17.48L55.12 17.96Q55.12 19.21 54.69 20.16Q54.25 21.10 53.45 21.61Q52.64 22.12 51.59 22.12L51.59 22.12Q50.56 22.12 49.75 21.61Q48.93 21.10 48.49 20.17Q48.05 19.23 48.04 18.00ZM49.53 17.46L49.53 17.96Q49.53 19.36 50.07 20.13Q50.62 20.90 51.59 20.90L51.59 20.90Q52.58 20.90 53.11 20.15Q53.64 19.40 53.64 17.96L53.64 17.96L53.64 17.51Q53.64 16.09 53.10 15.34Q52.57 14.58 51.58 14.58L51.58 14.58Q50.62 14.58 50.08 15.33Q49.54 16.09 49.53 17.46L49.53 17.46ZM59.34 18.13L59.34 18.13L59.34 17.46Q59.34 15.53 60.27 14.44Q61.19 13.35 62.85 13.35L62.85 13.35Q64.27 13.35 65.11 14.05Q65.95 14.76 66.12 16.08L66.12 16.08L64.67 16.08Q64.42 14.54 62.88 14.54L62.88 14.54Q61.88 14.54 61.36 15.26Q60.85 15.98 60.83 17.37L60.83 17.37L60.83 18.02Q60.83 19.40 61.41 20.17Q61.99 20.93 63.03 20.93L63.03 20.93Q64.17 20.93 64.65 20.42L64.65 20.42L64.65 18.75L62.89 18.75L62.89 17.62L66.13 17.62L66.13 20.89Q65.66 21.50 64.84 21.81Q64.02 22.12 62.98 22.12L62.98 22.12Q61.91 22.12 61.08 21.63Q60.25 21.14 59.81 20.24Q59.36 19.33 59.34 18.13ZM72.22 22L70.74 22L70.74 13.47L73.74 13.47Q75.22 13.47 76.02 14.13Q76.82 14.79 76.82 16.05L76.82 16.05Q76.82 16.90 76.41 17.48Q76.00 18.06 75.26 18.37L75.26 18.37L77.18 21.92L77.18 22L75.59 22L73.88 18.71L72.22 18.71L72.22 22ZM72.22 14.66L72.22 17.52L73.75 17.52Q74.50 17.52 74.92 17.15Q75.34 16.77 75.34 16.11L75.34 16.11Q75.34 15.43 74.95 15.05Q74.56 14.68 73.79 14.66L73.79 14.66L72.22 14.66ZM82.00 22L80.46 22L83.68 13.47L85.01 13.47L88.24 22L86.69 22L85.99 20.01L82.69 20.01L82.00 22ZM84.34 15.28L83.11 18.82L85.58 18.82L84.34 15.28ZM93.68 22L92.19 22L92.19 13.47L95.46 13.47Q96.89 13.47 97.73 14.21Q98.57 14.96 98.57 16.18L98.57 16.18Q98.57 17.44 97.75 18.13Q96.92 18.83 95.44 18.83L95.44 18.83L93.68 18.83L93.68 22ZM93.68 14.66L93.68 17.64L95.46 17.64Q96.25 17.64 96.66 17.27Q97.08 16.90 97.08 16.19L97.08 16.19Q97.08 15.50 96.66 15.09Q96.24 14.68 95.50 14.66L95.50 14.66L93.68 14.66ZM104.33 22L102.85 22L102.85 13.47L104.33 13.47L104.33 17.02L108.15 17.02L108.15 13.47L109.63 13.47L109.63 22L108.15 22L108.15 18.21L104.33 18.21L104.33 22ZM115.93 22L114.45 22L114.45 13.47L115.93 13.47L115.93 22ZM120.47 18.19L120.47 18.19L120.47 17.39Q120.47 16.19 120.90 15.27Q121.33 14.35 122.13 13.85Q122.93 13.35 123.97 13.35L123.97 13.35Q125.39 13.35 126.25 14.12Q127.11 14.89 127.25 16.29L127.25 16.29L125.77 16.29Q125.67 15.37 125.24 14.96Q124.81 14.55 123.97 14.55L123.97 14.55Q123.01 14.55 122.49 15.26Q121.97 15.96 121.96 17.33L121.96 17.33L121.96 18.09Q121.96 19.47 122.45 20.20Q122.95 20.92 123.90 20.92L123.90 20.92Q124.78 20.92 125.22 20.53Q125.66 20.14 125.77 19.22L125.77 19.22L127.25 19.22Q127.12 20.59 126.24 21.35Q125.36 22.12 123.90 22.12L123.90 22.12Q122.89 22.12 122.11 21.63Q121.33 21.15 120.91 20.26Q120.49 19.37 120.47 18.19ZM131.13 19.42L131.13 19.42L132.61 19.42Q132.61 20.15 133.09 20.55Q133.57 20.95 134.47 20.95L134.47 20.95Q135.24 20.95 135.63 20.63Q136.02 20.32 136.02 19.80L136.02 19.80Q136.02 19.24 135.63 18.94Q135.23 18.63 134.20 18.32Q133.17 18.01 132.56 17.63L132.56 17.63Q131.39 16.90 131.39 15.72L131.39 15.72Q131.39 14.69 132.23 14.02Q133.07 13.35 134.42 13.35L134.42 13.35Q135.31 13.35 136.00 13.68Q136.70 14.01 137.10 14.61Q137.50 15.22 137.50 15.96L137.50 15.96L136.02 15.96Q136.02 15.29 135.60 14.91Q135.18 14.54 134.40 14.54L134.40 14.54Q133.68 14.54 133.28 14.85Q132.88 15.16 132.88 15.71L132.88 15.71Q132.88 16.18 133.31 16.50Q133.74 16.81 134.74 17.10Q135.73 17.40 136.34 17.78Q136.94 18.16 137.22 18.65Q137.50 19.13 137.50 19.79L137.50 19.79Q137.50 20.86 136.69 21.49Q135.87 22.12 134.47 22.12L134.47 22.12Q133.54 22.12 132.77 21.77Q131.99 21.43 131.56 20.83Q131.13 20.22 131.13 19.42Z" fill="#FFFFFF"/><path class="svg__text" d="M165.26 15.48L162.68 15.48L162.68 13.60L170.20 13.60L170.20 15.48L167.63 15.48L167.63 22L165.26 22L165.26 15.48ZM175.99 22L173.56 22L177.27 13.60L179.62 13.60L183.33 22L180.86 22L180.20 20.37L176.65 20.37L175.99 22ZM178.43 15.93L177.34 18.61L179.50 18.61L178.43 15.93ZM192.03 22L187.49 22L187.49 13.60L191.79 13.60Q193.39 13.60 194.23 14.19Q195.07 14.79 195.07 15.79L195.07 15.79Q195.07 16.39 194.78 16.87Q194.48 17.34 193.94 17.62L193.94 17.62Q194.66 17.87 195.07 18.41Q195.48 18.94 195.48 19.70L195.48 19.70Q195.48 20.80 194.59 21.40Q193.70 22 192.03 22L192.03 22ZM189.84 18.58L189.84 20.28L191.83 20.28Q193.08 20.28 193.08 19.43L193.08 19.43Q193.08 18.58 191.83 18.58L191.83 18.58L189.84 18.58ZM189.84 15.31L189.84 16.94L191.47 16.94Q192.67 16.94 192.67 16.12L192.67 16.12Q192.67 15.31 191.47 15.31L191.47 15.31L189.84 15.31ZM206.58 22L200.19 22L200.19 13.60L202.57 13.60L202.57 20.11L206.58 20.11L206.58 22ZM217.74 22L211.00 22L211.00 13.60L217.59 13.60L217.59 15.44L213.35 15.44L213.35 16.85L217.09 16.85L217.09 18.63L213.35 18.63L213.35 20.17L217.74 20.17L217.74 22Z" fill="#FFFFFF" x="162.28"/></svg>